<?xml version="1.0" standalone="no"?>
<!DOCTYPE svg PUBLIC "-//W3C//DTD SVG 20010904//EN"
 "http://www.w3.org/TR/2001/REC-SVG-20010904/DTD/svg10.dtd">
<svg version="1.0" xmlns="http://www.w3.org/2000/svg"
 width="375.000000pt" height="375.000000pt" viewBox="0 0 375.000000 375.000000"
 preserveAspectRatio="xMidYMid meet">

<g transform="translate(0.000000,375.000000) scale(0.100000,-0.100000)"
fill="#000000" stroke="none">
<path d="M0 1875 l0 -1875 1875 0 1875 0 0 1875 0 1875 -1875 0 -1875 0 0
-1875z m2629 1229 c17 -14 31 -31 31 -37 0 -7 -10 0 -23 14 -12 15 -31 32 -42
38 -11 6 -15 11 -8 11 6 0 25 -12 42 -26z m-64 -8 c40 -17 68 -56 63 -88 -3
-22 -4 -21 -23 9 -39 66 4 63 -930 63 -914 0 -882 2 -919 -52 -19 -27 -21 -19
-4 18 7 16 30 35 53 45 38 18 88 19 883 19 705 0 848 -2 877 -14z m155 -92 c0
-2 -16 -4 -36 -4 -19 0 -33 4 -30 8 5 8 66 4 66 -4z m389 -988 c1 -429 -1
-777 -3 -775 -2 2 -7 362 -10 799 -3 468 -2 787 4 775 5 -11 9 -367 9 -799z
m-719 784 c0 -7 -267 -10 -780 -10 -513 0 -780 3 -780 10 0 7 267 10 780 10
513 0 780 -3 780 -10z m-35 -250 l0 -25 -247 -3 -248 -2 0 30 0 30 248 -2 247
-3 0 -25z m495 0 l0 -29 -180 -3 -180 -3 0 33 0 32 180 0 180 0 0 -30z m-1845
-7 c54 -29 129 -110 146 -159 20 -59 18 -255 -4 -326 -22 -72 -70 -135 -126
-165 -41 -21 -56 -23 -213 -23 -145 0 -169 2 -175 16 -9 25 16 34 98 34 59 0
80 4 90 16 10 13 17 82 24 268 9 211 13 247 23 223 19 -45 16 -443 -3 -481 -9
-16 -14 -31 -12 -32 2 -2 37 0 78 5 61 8 78 14 96 36 22 25 23 32 23 257 l0
230 -30 28 c-48 45 -97 50 -495 50 l-365 0 0 25 0 26 403 -3 c390 -3 403 -4
442 -25z m625 7 c0 -6 -95 -10 -265 -10 -170 0 -265 4 -265 10 0 6 95 10 265
10 170 0 265 -4 265 -10z m594 -235 c52 -339 105 -733 115 -860 22 -269 22
-267 9 -263 -6 2 -17 22 -23 44 -7 25 -13 35 -18 27 -5 -7 -18 -11 -30 -9 -18
2 -25 15 -38 67 -23 92 -123 758 -153 1022 -9 70 -18 132 -21 137 -6 9 115 19
127 10 3 -3 18 -81 32 -175z m-1249 161 c18 -8 38 -23 44 -34 14 -26 15 -420
1 -456 -11 -30 -34 -43 -89 -52 l-41 -7 7 34 c13 57 10 460 -4 497 -12 32 -12
32 18 32 16 0 45 -6 64 -14z m1675 -23 c1 -26 1 -27 13 -8 15 25 45 31 53 11
3 -8 -4 -81 -16 -163 -21 -146 -144 -848 -175 -991 -8 -40 -15 -75 -15 -78 0
-2 -7 -4 -15 -4 -12 0 -15 14 -16 63 l-1 62 -18 -65 -18 -65 -1 47 c-2 73 130
927 175 1137 17 81 34 106 34 54z m-390 -2 c5 -11 28 -153 50 -318 22 -164 51
-374 65 -468 26 -177 32 -315 15 -315 -5 0 -10 1 -10 3 0 1 -5 29 -10 62 -6
33 -14 96 -20 140 -9 79 -75 536 -105 729 -23 155 -17 226 15 167z m-201 -78
c34 -219 151 -1077 151 -1105 -1 -38 -21 31 -39 133 -11 63 -25 139 -31 169
-20 102 -99 644 -107 730 -9 93 -6 140 7 140 4 0 13 -30 19 -67z m-1545 -61
c8 -136 8 -642 -1 -843 -5 -122 -9 -156 -20 -156 -7 0 -16 11 -19 24 -6 24
-24 32 -25 11 0 -7 -4 -3 -10 10 -5 13 -13 21 -18 18 -18 -11 -21 67 -21 520
0 388 2 464 14 464 7 0 16 10 19 22 5 17 9 19 21 9 12 -10 15 -9 20 7 4 10 12
19 20 19 10 0 15 -27 20 -105z m86 -464 c0 -467 -2 -529 -15 -535 -9 -3 -19
-2 -23 2 -10 10 -9 1012 1 1060 8 37 10 39 23 20 12 -16 14 -108 14 -547z
m755 506 c80 -4 135 -19 208 -56 52 -27 57 -33 56 -62 0 -17 -3 -25 -6 -19 -7
19 -56 73 -65 73 -5 0 -8 -10 -8 -22 0 -19 -4 -17 -25 15 -14 20 -31 37 -37
37 -10 0 -9 -11 7 -55 l7 -20 -16 20 c-47 62 -71 70 -61 23 l6 -33 -21 28
c-12 15 -30 27 -39 27 -21 0 -71 37 -71 51 0 6 6 7 12 2 7 -4 31 -8 53 -9z
m-986 -454 c1 -353 -5 -492 -20 -468 -11 16 -12 869 -2 895 15 36 21 -84 22
-427z m982 383 c13 -16 12 -17 -3 -4 -10 7 -18 15 -18 17 0 8 8 3 21 -13z
m-1051 -408 c0 -385 -8 -503 -24 -354 -8 79 -8 682 0 732 18 103 24 0 24 -378z
m1275 374 c11 -17 -1 -21 -15 -4 -8 9 -8 15 -2 15 6 0 14 -5 17 -11z m-596
-420 c69 -14 110 -45 149 -109 l32 -54 0 -216 c0 -118 -5 -232 -10 -252 -18
-65 -68 -120 -145 -158 -69 -35 -70 -35 -223 -38 -101 -3 -158 0 -165 7 -6 6
-8 14 -4 17 3 4 68 11 142 15 152 9 193 18 240 50 61 42 60 37 57 349 -3 223
-7 290 -18 307 -16 25 -70 43 -132 43 -39 0 -42 -2 -32 -19 11 -22 14 -467 3
-522 -14 -72 -22 10 -22 247 -1 297 3 287 -123 292 -87 4 -105 11 -95 36 5 14
29 16 151 16 80 0 168 -5 195 -11z m440 -38 c6 -10 39 -32 74 -49 53 -24 66
-36 76 -63 l11 -34 -20 25 c-11 14 -20 27 -20 30 0 3 -10 11 -21 19 -20 12
-21 11 -16 -8 4 -18 2 -19 -13 -11 -11 6 -22 15 -25 20 -10 16 -25 12 -19 -5
11 -26 -14 -16 -40 17 -29 37 -27 45 6 27 22 -11 22 -11 7 7 -24 29 -31 44
-20 44 6 0 15 -9 20 -19z m-405 -53 c17 -21 18 -41 14 -293 -3 -148 -8 -278
-13 -288 -13 -30 -42 -40 -73 -25 l-27 13 -5 300 c-3 165 -7 305 -9 310 -7 20
0 22 47 14 29 -6 54 -18 66 -31z m606 -79 c0 -6 -4 -7 -10 -4 -5 3 -10 11 -10
16 0 6 5 7 10 4 6 -3 10 -11 10 -16z m-1020 -542 c13 -5 13 -6 -1 -6 -8 -1
-24 6 -35 15 -19 15 -19 15 1 6 11 -5 27 -12 35 -15z m47 -13 c-3 -3 -12 -4
-19 -1 -8 3 -5 6 6 6 11 1 17 -2 13 -5z m1411 -91 c15 -14 45 -15 314 -9 l298
7 0 -25 c0 -13 -6 -26 -14 -29 -11 -5 -659 2 -662 7 -1 0 -4 16 -7 34 -6 30
-5 32 24 32 17 0 38 -7 47 -17z m-218 -63 c0 -6 -117 -10 -332 -9 -183 1 -317
5 -298 9 55 12 630 12 630 0z m715 -260 c-24 -10 -1383 -11 -1510 -1 -49 5
275 8 720 9 460 0 801 -3 790 -8z m345 0 c-113 -3 -216 -3 -230 1 -14 4 79 7
205 6 l230 -1 -205 -6z m323 -57 c-123 -2 -323 -2 -445 0 -123 1 -23 2 222 2
245 0 345 -1 223 -2z"/>
</g>
</svg>
